<svg id="visual" viewBox="0 0 900 600" width="900" height="600" xmlns="http://www.w3.org/2000/svg" xmlns:xlink="http://www.w3.org/1999/xlink" version="1.1"><rect x="0" y="0" width="900" height="600" fill="#001220"></rect><g fill="#A7233A"><circle r="52" cx="847" cy="564"></circle><circle r="4" cx="334" cy="425"></circle><circle r="45" cx="709" cy="326"></circle><circle r="47" cx="808" cy="140"></circle><circle r="26" cx="475" cy="57"></circle><circle r="17" cx="149" cy="127"></circle><circle r="27" cx="162" cy="521"></circle><circle r="27" cx="331" cy="282"></circle><circle r="48" cx="514" cy="571"></circle><circle r="29" cx="218" cy="400"></circle><circle r="20" cx="560" cy="425"></circle><circle r="43" cx="575" cy="149"></circle><circle r="47" cx="896" cy="443"></circle><circle r="38" cx="43" cy="277"></circle><circle r="25" cx="316" cy="530"></circle><circle r="24" cx="712" cy="462"></circle><circle r="22" cx="208" cy="274"></circle><circle r="4" cx="710" cy="26"></circle><circle r="15" cx="528" cy="265"></circle><circle r="40" cx="6" cy="76"></circle><circle r="45" cx="327" cy="159"></circle><circle r="3" cx="625" cy="558"></circle><circle r="6" cx="436" cy="458"></circle><circle r="5" cx="892" cy="223"></circle><circle r="39" cx="4" cy="594"></circle><circle r="50" cx="84" cy="410"></circle><circle r="50" cx="192" cy="10"></circle><circle r="32" cx="376" cy="13"></circle><circle r="5" cx="795" cy="397"></circle><circle r="23" cx="432" cy="215"></circle><circle r="14" cx="673" cy="191"></circle><circle r="4" cx="876" cy="332"></circle><circle r="19" cx="603" cy="10"></circle><circle r="35" cx="817" cy="3"></circle><circle r="42" cx="425" cy="355"></circle><circle r="3" cx="411" cy="571"></circle><circle r="7" cx="11" cy="489"></circle><circle r="33" cx="743" cy="579"></circle><circle r="48" cx="88" cy="7"></circle><circle r="46" cx="51" cy="174"></circle><circle r="28" cx="786" cy="242"></circle><circle r="25" cx="282" cy="64"></circle></g></svg>