<svg id="visual" viewBox="0 0 900 600" width="900" height="600" xmlns="http://www.w3.org/2000/svg" xmlns:xlink="http://www.w3.org/1999/xlink" version="1.1"><rect x="0" y="0" width="900" height="600" fill="#140021"></rect><path d="M0 328L129 328L129 302L257 302L257 361L386 361L386 310L514 310L514 336L643 336L643 317L771 317L771 376L900 376L900 318L900 601L900 601L771 601L771 601L643 601L643 601L514 601L514 601L386 601L386 601L257 601L257 601L129 601L129 601L0 601Z" fill="#9900ff"></path><path d="M0 400L129 400L129 445L257 445L257 374L386 374L386 450L514 450L514 444L643 444L643 405L771 405L771 437L900 437L900 346L900 601L900 601L771 601L771 601L643 601L643 601L514 601L514 601L386 601L386 601L257 601L257 601L129 601L129 601L0 601Z" fill="#7700c6"></path><path d="M0 478L129 478L129 515L257 515L257 516L386 516L386 537L514 537L514 460L643 460L643 461L771 461L771 496L900 496L900 475L900 601L900 601L771 601L771 601L643 601L643 601L514 601L514 601L386 601L386 601L257 601L257 601L129 601L129 601L0 601Z" fill="#560090"></path></svg>